<mxfile host="app.diagrams.net" modified="2023-12-11T19:41:47.258Z" agent="Mozilla/5.0 (Windows NT 10.0; Win64; x64) AppleWebKit/537.36 (KHTML, like Gecko) Chrome/120.0.0.0 Safari/537.36" etag="VYAeIIqLt3BRec3N-7V0" version="22.1.7" type="device">
  <diagram id="R2lEEEUBdFMjLlhIrx00" name="Page-1">
    <mxGraphModel dx="1834" dy="390" grid="1" gridSize="10" guides="1" tooltips="1" connect="1" arrows="1" fold="1" page="0" pageScale="1" pageWidth="850" pageHeight="1100" math="0" shadow="0" extFonts="Permanent Marker^https://fonts.googleapis.com/css?family=Permanent+Marker">
      <root>
        <mxCell id="0" />
        <mxCell id="1" parent="0" />
        <mxCell id="zqb9X1cf3ugv0leZn6xZ-1" value="MICROMOBILITY_RESERVATION" style="whiteSpace=wrap;html=1;align=center;" parent="1" vertex="1">
          <mxGeometry x="440" y="540" width="200" height="40" as="geometry" />
        </mxCell>
        <mxCell id="zqb9X1cf3ugv0leZn6xZ-4" value="VEHICLE" style="whiteSpace=wrap;html=1;align=center;fontSize=11;" parent="1" vertex="1">
          <mxGeometry x="480" y="740" width="120" height="40" as="geometry" />
        </mxCell>
        <mxCell id="zqb9X1cf3ugv0leZn6xZ-5" value="LOCATION" style="whiteSpace=wrap;html=1;align=center;" parent="1" vertex="1">
          <mxGeometry x="1020" y="540" width="120" height="40" as="geometry" />
        </mxCell>
        <mxCell id="zqb9X1cf3ugv0leZn6xZ-6" value="PICK_UP_LOCATION" style="shape=rhombus;perimeter=rhombusPerimeter;whiteSpace=wrap;html=1;align=center;" parent="1" vertex="1">
          <mxGeometry x="740" y="490" width="160" height="60" as="geometry" />
        </mxCell>
        <mxCell id="zqb9X1cf3ugv0leZn6xZ-7" value="DROP_OFF_LOCATION" style="shape=rhombus;perimeter=rhombusPerimeter;whiteSpace=wrap;html=1;align=center;fontSize=11;" parent="1" vertex="1">
          <mxGeometry x="740" y="580" width="160" height="60" as="geometry" />
        </mxCell>
        <mxCell id="zqb9X1cf3ugv0leZn6xZ-8" value="Pick_up_time" style="ellipse;whiteSpace=wrap;html=1;align=center;" parent="1" vertex="1">
          <mxGeometry x="860" y="420" width="100" height="40" as="geometry" />
        </mxCell>
        <mxCell id="zqb9X1cf3ugv0leZn6xZ-9" value="Drop_off_time" style="ellipse;whiteSpace=wrap;html=1;align=center;" parent="1" vertex="1">
          <mxGeometry x="860" y="660" width="100" height="40" as="geometry" />
        </mxCell>
        <mxCell id="zqb9X1cf3ugv0leZn6xZ-10" value="" style="endArrow=none;html=1;rounded=0;exitX=1;exitY=1;exitDx=0;exitDy=0;entryX=0.5;entryY=0;entryDx=0;entryDy=0;" parent="1" source="zqb9X1cf3ugv0leZn6xZ-7" target="zqb9X1cf3ugv0leZn6xZ-9" edge="1">
          <mxGeometry relative="1" as="geometry">
            <mxPoint x="1070" y="690" as="sourcePoint" />
            <mxPoint x="1230" y="690" as="targetPoint" />
          </mxGeometry>
        </mxCell>
        <mxCell id="zqb9X1cf3ugv0leZn6xZ-11" value="" style="endArrow=none;html=1;rounded=0;entryX=1;entryY=0;entryDx=0;entryDy=0;exitX=0.5;exitY=1;exitDx=0;exitDy=0;" parent="1" source="zqb9X1cf3ugv0leZn6xZ-8" target="zqb9X1cf3ugv0leZn6xZ-6" edge="1">
          <mxGeometry relative="1" as="geometry">
            <mxPoint x="640" y="560" as="sourcePoint" />
            <mxPoint x="800" y="560" as="targetPoint" />
          </mxGeometry>
        </mxCell>
        <mxCell id="zqb9X1cf3ugv0leZn6xZ-12" value="Address" style="ellipse;whiteSpace=wrap;html=1;align=center;fontStyle=4;" parent="1" vertex="1">
          <mxGeometry x="1030" y="440" width="100" height="40" as="geometry" />
        </mxCell>
        <mxCell id="zqb9X1cf3ugv0leZn6xZ-13" value="" style="endArrow=none;html=1;rounded=0;exitX=0.5;exitY=1;exitDx=0;exitDy=0;entryX=0.5;entryY=0;entryDx=0;entryDy=0;" parent="1" source="zqb9X1cf3ugv0leZn6xZ-12" target="zqb9X1cf3ugv0leZn6xZ-5" edge="1">
          <mxGeometry relative="1" as="geometry">
            <mxPoint x="560" y="590" as="sourcePoint" />
            <mxPoint x="490" y="600" as="targetPoint" />
          </mxGeometry>
        </mxCell>
        <mxCell id="zqb9X1cf3ugv0leZn6xZ-14" value="" style="endArrow=none;html=1;rounded=0;entryX=1;entryY=0.5;entryDx=0;entryDy=0;exitX=0;exitY=0;exitDx=0;exitDy=0;" parent="1" source="zqb9X1cf3ugv0leZn6xZ-5" target="zqb9X1cf3ugv0leZn6xZ-6" edge="1">
          <mxGeometry relative="1" as="geometry">
            <mxPoint x="1090" y="540" as="sourcePoint" />
            <mxPoint x="1250" y="540" as="targetPoint" />
          </mxGeometry>
        </mxCell>
        <mxCell id="zqb9X1cf3ugv0leZn6xZ-15" value="1" style="resizable=0;html=1;whiteSpace=wrap;align=right;verticalAlign=bottom;" parent="zqb9X1cf3ugv0leZn6xZ-14" connectable="0" vertex="1">
          <mxGeometry x="1" relative="1" as="geometry" />
        </mxCell>
        <mxCell id="zqb9X1cf3ugv0leZn6xZ-16" value="" style="endArrow=none;html=1;rounded=0;entryX=0.957;entryY=0.502;entryDx=0;entryDy=0;entryPerimeter=0;exitX=0;exitY=1;exitDx=0;exitDy=0;" parent="1" source="zqb9X1cf3ugv0leZn6xZ-5" target="zqb9X1cf3ugv0leZn6xZ-7" edge="1">
          <mxGeometry relative="1" as="geometry">
            <mxPoint x="1090" y="540" as="sourcePoint" />
            <mxPoint x="1250" y="540" as="targetPoint" />
          </mxGeometry>
        </mxCell>
        <mxCell id="zqb9X1cf3ugv0leZn6xZ-17" value="1" style="resizable=0;html=1;whiteSpace=wrap;align=right;verticalAlign=bottom;" parent="zqb9X1cf3ugv0leZn6xZ-16" connectable="0" vertex="1">
          <mxGeometry x="1" relative="1" as="geometry" />
        </mxCell>
        <mxCell id="zqb9X1cf3ugv0leZn6xZ-18" value="" style="shape=link;html=1;rounded=0;exitX=1;exitY=1;exitDx=0;exitDy=0;entryX=0;entryY=0.5;entryDx=0;entryDy=0;" parent="1" source="zqb9X1cf3ugv0leZn6xZ-1" target="zqb9X1cf3ugv0leZn6xZ-7" edge="1">
          <mxGeometry relative="1" as="geometry">
            <mxPoint x="800" y="500" as="sourcePoint" />
            <mxPoint x="960" y="500" as="targetPoint" />
          </mxGeometry>
        </mxCell>
        <mxCell id="zqb9X1cf3ugv0leZn6xZ-19" value="N" style="resizable=0;html=1;whiteSpace=wrap;align=right;verticalAlign=bottom;" parent="zqb9X1cf3ugv0leZn6xZ-18" connectable="0" vertex="1">
          <mxGeometry x="1" relative="1" as="geometry" />
        </mxCell>
        <mxCell id="zqb9X1cf3ugv0leZn6xZ-20" value="" style="shape=link;html=1;rounded=0;exitX=1;exitY=0;exitDx=0;exitDy=0;entryX=0;entryY=0.5;entryDx=0;entryDy=0;" parent="1" source="zqb9X1cf3ugv0leZn6xZ-1" target="zqb9X1cf3ugv0leZn6xZ-6" edge="1">
          <mxGeometry relative="1" as="geometry">
            <mxPoint x="630" y="500" as="sourcePoint" />
            <mxPoint x="790" y="500" as="targetPoint" />
          </mxGeometry>
        </mxCell>
        <mxCell id="zqb9X1cf3ugv0leZn6xZ-21" value="N" style="resizable=0;html=1;whiteSpace=wrap;align=right;verticalAlign=bottom;" parent="zqb9X1cf3ugv0leZn6xZ-20" connectable="0" vertex="1">
          <mxGeometry x="1" relative="1" as="geometry" />
        </mxCell>
        <mxCell id="zqb9X1cf3ugv0leZn6xZ-22" value="RESERVES" style="shape=rhombus;perimeter=rhombusPerimeter;whiteSpace=wrap;html=1;align=center;" parent="1" vertex="1">
          <mxGeometry x="480" y="630" width="120" height="60" as="geometry" />
        </mxCell>
        <mxCell id="zqb9X1cf3ugv0leZn6xZ-31" value="Reservation_code" style="ellipse;whiteSpace=wrap;html=1;align=center;fontStyle=4;fontSize=12;" parent="1" vertex="1">
          <mxGeometry x="480" y="440" width="120" height="40" as="geometry" />
        </mxCell>
        <mxCell id="zqb9X1cf3ugv0leZn6xZ-33" value="Vehicle_id" style="ellipse;whiteSpace=wrap;html=1;align=center;fontStyle=4;" parent="1" vertex="1">
          <mxGeometry x="660" y="740" width="100" height="40" as="geometry" />
        </mxCell>
        <mxCell id="zqb9X1cf3ugv0leZn6xZ-34" value="Price" style="ellipse;whiteSpace=wrap;html=1;align=center;" parent="1" vertex="1">
          <mxGeometry x="490" y="820" width="100" height="40" as="geometry" />
        </mxCell>
        <mxCell id="zqb9X1cf3ugv0leZn6xZ-35" value="Vehicle_type" style="ellipse;whiteSpace=wrap;html=1;align=center;" parent="1" vertex="1">
          <mxGeometry x="620" y="800" width="100" height="40" as="geometry" />
        </mxCell>
        <mxCell id="zqb9X1cf3ugv0leZn6xZ-36" value="" style="endArrow=none;html=1;rounded=0;entryX=0;entryY=0;entryDx=0;entryDy=0;exitX=1;exitY=1;exitDx=0;exitDy=0;" parent="1" source="zqb9X1cf3ugv0leZn6xZ-4" target="zqb9X1cf3ugv0leZn6xZ-35" edge="1">
          <mxGeometry relative="1" as="geometry">
            <mxPoint x="480" y="600" as="sourcePoint" />
            <mxPoint x="640" y="600" as="targetPoint" />
          </mxGeometry>
        </mxCell>
        <mxCell id="zqb9X1cf3ugv0leZn6xZ-37" value="" style="endArrow=none;html=1;rounded=0;entryX=0;entryY=0.5;entryDx=0;entryDy=0;exitX=1;exitY=0.5;exitDx=0;exitDy=0;" parent="1" source="zqb9X1cf3ugv0leZn6xZ-4" target="zqb9X1cf3ugv0leZn6xZ-33" edge="1">
          <mxGeometry relative="1" as="geometry">
            <mxPoint x="480" y="600" as="sourcePoint" />
            <mxPoint x="640" y="600" as="targetPoint" />
          </mxGeometry>
        </mxCell>
        <mxCell id="zqb9X1cf3ugv0leZn6xZ-38" value="" style="endArrow=none;html=1;rounded=0;entryX=0.5;entryY=0;entryDx=0;entryDy=0;exitX=0.5;exitY=1;exitDx=0;exitDy=0;" parent="1" source="zqb9X1cf3ugv0leZn6xZ-4" target="zqb9X1cf3ugv0leZn6xZ-34" edge="1">
          <mxGeometry relative="1" as="geometry">
            <mxPoint x="480" y="600" as="sourcePoint" />
            <mxPoint x="640" y="600" as="targetPoint" />
          </mxGeometry>
        </mxCell>
        <mxCell id="zqb9X1cf3ugv0leZn6xZ-59" value="CUSTOMER" style="whiteSpace=wrap;html=1;align=center;" parent="1" vertex="1">
          <mxGeometry x="240" y="640" width="120" height="40" as="geometry" />
        </mxCell>
        <mxCell id="zqb9X1cf3ugv0leZn6xZ-60" value="Customer_id" style="ellipse;whiteSpace=wrap;html=1;align=center;fontStyle=4;" parent="1" vertex="1">
          <mxGeometry x="150" y="580" width="100" height="40" as="geometry" />
        </mxCell>
        <mxCell id="zqb9X1cf3ugv0leZn6xZ-61" value="Name" style="ellipse;whiteSpace=wrap;html=1;align=center;" parent="1" vertex="1">
          <mxGeometry x="250" y="550" width="100" height="40" as="geometry" />
        </mxCell>
        <mxCell id="zqb9X1cf3ugv0leZn6xZ-62" value="Data" style="ellipse;whiteSpace=wrap;html=1;align=center;" parent="1" vertex="1">
          <mxGeometry x="100" y="640" width="100" height="40" as="geometry" />
        </mxCell>
        <mxCell id="zqb9X1cf3ugv0leZn6xZ-64" value="" style="endArrow=none;html=1;rounded=0;entryX=0.5;entryY=1;entryDx=0;entryDy=0;exitX=0;exitY=0.5;exitDx=0;exitDy=0;" parent="1" source="zqb9X1cf3ugv0leZn6xZ-68" target="zqb9X1cf3ugv0leZn6xZ-62" edge="1">
          <mxGeometry relative="1" as="geometry">
            <mxPoint x="385" y="895" as="sourcePoint" />
            <mxPoint x="415" y="825" as="targetPoint" />
          </mxGeometry>
        </mxCell>
        <mxCell id="zqb9X1cf3ugv0leZn6xZ-65" value="" style="endArrow=none;html=1;rounded=0;exitX=0;exitY=0.5;exitDx=0;exitDy=0;entryX=0;entryY=0.5;entryDx=0;entryDy=0;" parent="1" source="zqb9X1cf3ugv0leZn6xZ-67" target="zqb9X1cf3ugv0leZn6xZ-62" edge="1">
          <mxGeometry relative="1" as="geometry">
            <mxPoint x="455" y="925" as="sourcePoint" />
            <mxPoint x="90" y="660" as="targetPoint" />
          </mxGeometry>
        </mxCell>
        <mxCell id="zqb9X1cf3ugv0leZn6xZ-66" value="" style="endArrow=none;html=1;rounded=0;entryX=0.5;entryY=0;entryDx=0;entryDy=0;exitX=0;exitY=0.5;exitDx=0;exitDy=0;" parent="1" source="zqb9X1cf3ugv0leZn6xZ-69" target="zqb9X1cf3ugv0leZn6xZ-62" edge="1">
          <mxGeometry relative="1" as="geometry">
            <mxPoint x="524.9999999999868" y="905" as="sourcePoint" />
            <mxPoint x="415" y="825" as="targetPoint" />
          </mxGeometry>
        </mxCell>
        <mxCell id="zqb9X1cf3ugv0leZn6xZ-67" value="Preferences" style="ellipse;shape=doubleEllipse;margin=3;whiteSpace=wrap;html=1;align=center;" parent="1" vertex="1">
          <mxGeometry x="-60" y="640" width="100" height="40" as="geometry" />
        </mxCell>
        <mxCell id="zqb9X1cf3ugv0leZn6xZ-68" value="Transportation_history" style="ellipse;shape=doubleEllipse;margin=3;whiteSpace=wrap;html=1;align=center;fontSize=9;" parent="1" vertex="1">
          <mxGeometry x="10" y="700" width="100" height="40" as="geometry" />
        </mxCell>
        <mxCell id="zqb9X1cf3ugv0leZn6xZ-69" value="Searches" style="ellipse;shape=doubleEllipse;margin=3;whiteSpace=wrap;html=1;align=center;" parent="1" vertex="1">
          <mxGeometry x="10" y="580" width="100" height="40" as="geometry" />
        </mxCell>
        <mxCell id="zqb9X1cf3ugv0leZn6xZ-70" value="" style="endArrow=none;html=1;rounded=0;entryX=0.5;entryY=1;entryDx=0;entryDy=0;exitX=0.5;exitY=0;exitDx=0;exitDy=0;" parent="1" source="zqb9X1cf3ugv0leZn6xZ-59" target="zqb9X1cf3ugv0leZn6xZ-61" edge="1">
          <mxGeometry relative="1" as="geometry">
            <mxPoint x="45" y="875" as="sourcePoint" />
            <mxPoint x="205" y="875" as="targetPoint" />
          </mxGeometry>
        </mxCell>
        <mxCell id="zqb9X1cf3ugv0leZn6xZ-71" value="Phone" style="ellipse;whiteSpace=wrap;html=1;align=center;" parent="1" vertex="1">
          <mxGeometry x="350" y="580" width="100" height="40" as="geometry" />
        </mxCell>
        <mxCell id="zqb9X1cf3ugv0leZn6xZ-72" value="" style="endArrow=none;html=1;rounded=0;entryX=0.5;entryY=1;entryDx=0;entryDy=0;exitX=1;exitY=0;exitDx=0;exitDy=0;" parent="1" source="zqb9X1cf3ugv0leZn6xZ-59" target="zqb9X1cf3ugv0leZn6xZ-71" edge="1">
          <mxGeometry relative="1" as="geometry">
            <mxPoint x="125" y="765" as="sourcePoint" />
            <mxPoint x="285" y="765" as="targetPoint" />
          </mxGeometry>
        </mxCell>
        <mxCell id="zqb9X1cf3ugv0leZn6xZ-73" value="" style="endArrow=none;html=1;rounded=0;entryX=0.25;entryY=0;entryDx=0;entryDy=0;exitX=0.5;exitY=1;exitDx=0;exitDy=0;" parent="1" source="zqb9X1cf3ugv0leZn6xZ-60" target="zqb9X1cf3ugv0leZn6xZ-59" edge="1">
          <mxGeometry relative="1" as="geometry">
            <mxPoint x="-110" y="830" as="sourcePoint" />
            <mxPoint x="50" y="830" as="targetPoint" />
          </mxGeometry>
        </mxCell>
        <mxCell id="zqb9X1cf3ugv0leZn6xZ-75" value="" style="endArrow=none;html=1;rounded=0;entryX=0.5;entryY=1;entryDx=0;entryDy=0;exitX=0.5;exitY=0;exitDx=0;exitDy=0;" parent="1" source="zqb9X1cf3ugv0leZn6xZ-1" target="zqb9X1cf3ugv0leZn6xZ-31" edge="1">
          <mxGeometry relative="1" as="geometry">
            <mxPoint x="370" y="590" as="sourcePoint" />
            <mxPoint x="530" y="590" as="targetPoint" />
          </mxGeometry>
        </mxCell>
        <mxCell id="zqb9X1cf3ugv0leZn6xZ-76" value="" style="endArrow=none;html=1;rounded=0;exitX=1;exitY=0.5;exitDx=0;exitDy=0;entryX=0;entryY=0.5;entryDx=0;entryDy=0;" parent="1" source="zqb9X1cf3ugv0leZn6xZ-62" target="zqb9X1cf3ugv0leZn6xZ-59" edge="1">
          <mxGeometry relative="1" as="geometry">
            <mxPoint x="370" y="590" as="sourcePoint" />
            <mxPoint x="530" y="590" as="targetPoint" />
          </mxGeometry>
        </mxCell>
        <mxCell id="zqb9X1cf3ugv0leZn6xZ-80" value="" style="endArrow=none;html=1;rounded=0;entryX=0.5;entryY=0;entryDx=0;entryDy=0;exitX=0.5;exitY=1;exitDx=0;exitDy=0;" parent="1" source="zqb9X1cf3ugv0leZn6xZ-1" target="zqb9X1cf3ugv0leZn6xZ-22" edge="1">
          <mxGeometry relative="1" as="geometry">
            <mxPoint x="370" y="590" as="sourcePoint" />
            <mxPoint x="530" y="590" as="targetPoint" />
          </mxGeometry>
        </mxCell>
        <mxCell id="zqb9X1cf3ugv0leZn6xZ-81" value="N" style="resizable=0;html=1;whiteSpace=wrap;align=right;verticalAlign=bottom;" parent="zqb9X1cf3ugv0leZn6xZ-80" connectable="0" vertex="1">
          <mxGeometry x="1" relative="1" as="geometry">
            <mxPoint x="-10" as="offset" />
          </mxGeometry>
        </mxCell>
        <mxCell id="bee-HAOUphu_G1n_D20x-1" value="" style="shape=link;html=1;rounded=0;entryX=0.5;entryY=1;entryDx=0;entryDy=0;exitX=0.5;exitY=0;exitDx=0;exitDy=0;" edge="1" parent="1" source="zqb9X1cf3ugv0leZn6xZ-4" target="zqb9X1cf3ugv0leZn6xZ-22">
          <mxGeometry relative="1" as="geometry">
            <mxPoint x="460" y="630" as="sourcePoint" />
            <mxPoint x="620" y="630" as="targetPoint" />
          </mxGeometry>
        </mxCell>
        <mxCell id="bee-HAOUphu_G1n_D20x-2" value="1" style="resizable=0;html=1;whiteSpace=wrap;align=right;verticalAlign=bottom;" connectable="0" vertex="1" parent="bee-HAOUphu_G1n_D20x-1">
          <mxGeometry x="1" relative="1" as="geometry">
            <mxPoint x="-10" y="20" as="offset" />
          </mxGeometry>
        </mxCell>
        <mxCell id="bee-HAOUphu_G1n_D20x-3" value="" style="shape=link;html=1;rounded=0;exitX=1;exitY=0.5;exitDx=0;exitDy=0;entryX=0;entryY=0.5;entryDx=0;entryDy=0;" edge="1" parent="1" source="zqb9X1cf3ugv0leZn6xZ-59" target="zqb9X1cf3ugv0leZn6xZ-22">
          <mxGeometry relative="1" as="geometry">
            <mxPoint x="460" y="630" as="sourcePoint" />
            <mxPoint x="620" y="630" as="targetPoint" />
          </mxGeometry>
        </mxCell>
        <mxCell id="bee-HAOUphu_G1n_D20x-4" value="1" style="resizable=0;html=1;whiteSpace=wrap;align=right;verticalAlign=bottom;" connectable="0" vertex="1" parent="bee-HAOUphu_G1n_D20x-3">
          <mxGeometry x="1" relative="1" as="geometry" />
        </mxCell>
      </root>
    </mxGraphModel>
  </diagram>
</mxfile>
